<svg width="37" height="40" viewBox="0 0 37 40" fill="none" xmlns="http://www.w3.org/2000/svg">
<path fill-rule="evenodd" clip-rule="evenodd" d="M9.96369 0.715416C3.58134 1.94914 0.300886 6.83838 0.300886 15.2231C0.278567 23.8135 8.73637 29.0911 17.4396 25.9154L19.0464 25.3214C20.3631 26.7379 20.5863 26.7379 19.1804 27.606C18.0646 28.2914 18.176 28.9997 18.8902 29.2738C19.8497 29.6394 25.6744 35.3739 26.4555 36.7676C29.3342 41.9081 36.52 40.1032 36.0291 36.0822C35.8059 34.2544 34.4445 32.1297 32.8377 30.6218C31.0525 28.9312 30.0483 27.5603 28.7317 25.0015C27.4596 22.5112 26.3216 21.9629 24.6701 22.991C23.956 23.4251 23.889 23.4479 23.5096 23.0824C22.7286 22.3741 22.7732 21.8944 23.7328 20.4093C27.3927 14.6519 27.5935 9.62568 24.3577 5.62748C19.8497 0.052865 15.9891 2.06338 18.6224 3.79968C25.0271 8.00348 24.6925 16.5482 17.8638 22.991C14.07 26.5779 6.43782 24.6588 4.47401 19.6325C1.37207 11.6362 6.48236 1.08097 14.7617 2.77158C17.6182 3.52558 18.7563 -0.975244 9.96369 0.715416ZM9.07111 6.40428C8.11153 7.22678 8.73637 7.93498 10.5216 6.67838C11.7713 5.81028 12.374 5.65028 13.5121 5.92448C15.0073 6.26718 15.9221 5.87878 15.4536 5.10198C15.2973 4.82788 12.0168 3.86828 9.07111 6.40428ZM18.0198 6.10728C16.8148 6.03868 16.5023 6.72408 17.3281 7.61518C18.3546 8.73458 20.4078 8.91738 20.2961 7.88928C20.2292 7.18108 18.9348 6.15298 18.0198 6.10728ZM25.786 25.2528C25.9645 26.0068 27.7274 28.657 28.6648 29.6394C29.8029 30.8046 30.2938 31.5814 31.7666 33.2263C34.757 36.5848 31.1864 39.9204 28.3746 35.7166C24.8263 30.4162 21.5234 28.7484 21.5681 28.1315C21.6351 27.3547 25.6297 24.6131 25.786 25.2528Z" fill="#006B99"/>
</svg>
