<svg width="41" height="37" viewBox="0 0 41 37" fill="none" xmlns="http://www.w3.org/2000/svg">
<path fill-rule="evenodd" clip-rule="evenodd" d="M8.75697 1.13343C6.28846 1.54652 7.95005 3.22318 9.99122 3.51478C11.7002 3.75778 14.9756 3.75778 22.025 3.73348C30.6171 3.70918 34.296 3.80638 34.842 4.04938C36.1949 4.68117 36.7884 7.11118 37.1682 13.6964C37.3106 16.0291 37.5953 19.5283 37.8089 21.4722C38.4735 27.7172 37.8565 28.3247 30.0476 28.6406C27.0331 28.7621 23.1168 29.0051 21.3604 29.1752C13.1481 29.9771 8.0449 29.8312 5.19672 28.6649C2.82315 27.6929 2.94188 26.9153 2.87067 25.2872C2.70452 22.1283 2.77571 15.6889 3.08424 9.83268C3.34534 4.92418 3.6539 3.95218 5.19672 3.22318C6.14605 2.78578 5.81385 2.27548 4.62706 2.32408C2.84692 2.42128 1.47029 3.02878 1.20921 5.87188C0.876907 9.37098 -1.2356 28.592 2.56204 30.2201C5.05421 31.2893 9.39783 32.3341 11.1067 32.3341C12.2935 32.3341 12.2461 33.6949 11.0593 34.0594C8.32982 34.8613 10.2523 36.8053 13.86 36.9511C21.1705 37.194 31.8515 36.5866 31.9464 35.8819C32.0414 35.1772 30.4985 33.5734 29.6915 33.5734C29.4304 33.5734 29.2642 33.2575 29.2642 32.7958C29.2642 32.1397 29.2643 31.2163 30 31.2163C33.1568 31.2163 34.842 31.0705 35.7914 30.8518C40.4197 29.8312 40.6097 26.6237 40.5623 24.7527C40.3961 17.0983 38.9957 9.78407 38.9957 8.05887C38.972 5.06997 37.2631 2.12968 33.6078 1.59512C32.1838 1.15773 11.2017 0.720325 8.75697 1.13343ZM21.1468 16.0048C20.862 15.6889 18.1087 12.5543 17.3492 11.7524C16.3998 10.7561 15.4266 11.072 13.3853 12.9916C12.341 13.9879 10.7033 15.4702 9.73013 16.3207C6.35977 19.2367 6.09858 20.5488 8.87565 20.5488C9.82507 20.5488 10.2761 20.2086 13.1006 17.2441C16.7558 13.4047 16.4235 13.429 19.6041 16.588C21.7402 18.702 21.4791 18.7264 24.9445 15.9562C27.9351 13.1132 29.6441 11.2178 31.8039 9.00648C33.9401 6.81958 30.6646 5.82328 28.932 7.32978C26.8907 9.05508 21.1705 15.9805 21.1468 16.0048ZM28.837 14.8627C28.4098 15.9805 28.6234 23.4405 29.0981 23.9022C30.2612 25.0929 30.9732 22.5414 30.902 17.4871C30.8546 14.6926 29.5254 13.016 28.837 14.8627ZM15.0943 17.9002C14.3586 19.8928 14.9756 25.3359 16.471 25.0686C17.9662 24.8013 16.9457 18.7992 16.6134 17.9245C16.3998 17.2927 15.3316 17.2684 15.0943 17.9002ZM24.7545 18.459C24.351 18.9693 23.9476 22.7358 24.2087 23.7564C24.6597 25.5788 26.5347 24.777 26.5347 22.7601C26.5347 19.3825 25.6802 17.317 24.7545 18.459ZM11.2492 21.0591C10.8932 21.4236 11.0355 24.1452 11.4627 24.7283C12.2223 25.7975 12.8869 25.1172 12.8869 23.2461C12.8631 21.3021 12.0561 20.2087 11.2492 21.0591ZM19.4378 21.0591C18.8207 21.6909 19.2479 24.2909 20.0075 24.6554C21.218 25.2143 21.6215 23.6835 20.8857 21.2535C20.767 20.8161 19.7939 20.6946 19.4378 21.0591ZM25.5616 31.6295C26.511 31.8968 26.155 32.7715 26.25 33.5734L15.2842 33.7678C15.2842 33.6949 15.4742 31.7752 15.4742 31.8967C16.2336 31.8724 23.1881 31.5809 24.1375 31.508C24.5173 31.4594 25.1818 31.5323 25.5616 31.6295Z" fill="#006B99"/>
</svg>
